<?xml version="1.0" encoding="UTF-8" standalone="no"?>
<!-- Created with Inkscape (http://www.inkscape.org/) -->

<svg
   xmlns:dc="http://purl.org/dc/elements/1.1/"
   xmlns:cc="http://creativecommons.org/ns#"
   xmlns:rdf="http://www.w3.org/1999/02/22-rdf-syntax-ns#"
   xmlns:svg="http://www.w3.org/2000/svg"
   xmlns="http://www.w3.org/2000/svg"
   xmlns:xlink="http://www.w3.org/1999/xlink"
   xmlns:sodipodi="http://sodipodi.sourceforge.net/DTD/sodipodi-0.dtd"
   xmlns:inkscape="http://www.inkscape.org/namespaces/inkscape"
   width="75"
   height="100"
   viewBox="0 0 0 1052.3622"
   id="svg2"
   version="1.1"
   inkscape:version="0.91 r13725"
   sodipodi:docname="Lancervector.svg">
  <defs
     id="defs4" />
  <sodipodi:namedview
     id="base"
     pagecolor="#ffffff"
     bordercolor="#666666"
     borderopacity="1.0"
     inkscape:pageopacity="0.0"
     inkscape:pageshadow="2"
     inkscape:zoom="7.88"
     inkscape:cx="46.155267"
     inkscape:cy="50"
     inkscape:document-units="px"
     inkscape:current-layer="layer1"
     showgrid="false"
     units="px"
     inkscape:window-width="1680"
     inkscape:window-height="987"
     inkscape:window-x="-8"
     inkscape:window-y="-8"
     inkscape:window-maximized="1" />
  <metadata
     id="metadata7">
    <rdf:RDF>
      <cc:Work
         rdf:about="">
        <dc:format>image/svg+xml</dc:format>
        <dc:type
           rdf:resource="http://purl.org/dc/dcmitype/StillImage" />
        <dc:title></dc:title>
      </cc:Work>
    </rdf:RDF>
  </metadata>
  <g
     inkscape:label="Layer 1"
     inkscape:groupmode="layer"
     id="layer1"
     transform="translate(0,-952.36216)">
    <image
       sodipodi:absref="C:\Users\frede\OneDrive\Documents\Lancer logo cropped.jpeg"
       xlink:href="Lancer logo cropped.jpeg"
       y="952.66357"
       x="0.082487196"
       id="image3344"
       preserveAspectRatio="none"
       height="99.651016"
       width="74.961929" />
    <g
       id="g3349">
      <path
         style="fill:#eef0f0"
         d="m 0.0824872,1002.4891 0,-49.82553 37.4809648,0 37.480964,0 0,49.82553 0,49.8255 -37.480964,0 -37.4809648,0 0,-49.8255 z"
         id="path3365"
         inkscape:connector-curvature="0" />
      <path
         style="fill:#e3ca3c"
         d="m 0.0824872,1002.4891 0,-49.82553 18.4496458,0 c 17.140223,0 18.556825,0.16641 19.959791,2.34473 1.3006,2.01938 2.892804,2.36042 11.474673,2.45778 5.480489,0.0622 12.956959,0.72163 16.614376,1.46545 l 6.649848,1.35241 -0.365543,19.34402 c -0.345962,18.30779 -1.588753,26.16934 -5.831988,36.89134 -0.557745,1.4094 0.22914,1.7967 3.650048,1.7967 l 4.361078,0 -0.02885,9.672 c -0.01586,5.3196 -0.501779,11.6467 -1.079812,14.0601 -0.614551,2.566 -0.602573,4.1194 0.02885,3.741 0.593897,-0.3559 1.079812,0.9667 1.079812,2.9392 l 0,3.5863 -37.480964,0 -37.4809648,0 0,-49.8255 z m 59.2174098,15.1156 c 1.186505,-1.1888 5.399356,-13.1862 6.645785,-18.92581 0.6578,-3.02909 0.435938,-3.81018 -1.082238,-3.81018 -1.050314,0 -1.909662,0.93774 -1.909662,2.08387 0,2.83586 -3.367652,7.29502 -5.509343,7.29502 -2.104043,0 -2.309899,-3.6728 -0.314312,-5.60779 0.786899,-0.76301 1.136811,-1.67229 0.777582,-2.02061 -1.069952,-1.03748 -4.626433,0.72792 -4.626433,2.29651 0,2.28169 -4.136602,5.33359 -8.990827,6.63319 -4.295565,1.1501 -4.428556,1.3476 -4.072458,6.0488 0.355813,4.6975 0.550007,4.904 5.808904,6.1781 6.095914,1.4769 11.70033,1.4047 13.273002,-0.1711 z m -4.809558,-29.14275 c 0,-4.06493 8.588985,-5.05634 10.127398,-1.16899 0.373054,0.94266 1.239435,1.71392 1.925289,1.71392 0.772451,0 1.24701,-4.40575 1.24701,-11.5771 l 0,-11.5771 -3.521049,-0.68284 c -1.936576,-0.37556 -8.465518,-1.04476 -14.50876,-1.48712 -12.54887,-0.91856 -14.571864,0.5341 -5.025472,3.60866 5.633962,1.8145 6.037842,2.22312 7.335345,7.42149 2.240819,8.97772 2.129761,10.1476 -1.004174,10.57801 -2.700983,0.37094 -2.731317,0.48216 -0.719409,2.63782 2.505013,2.68399 4.143822,2.89488 4.143822,0.53325 z"
         id="path3363"
         inkscape:connector-curvature="0" />
      <path
         style="fill:#96a0a7"
         d="m 0.0824872,1002.4891 0,-49.82553 18.4496458,0 c 17.140223,0 18.556825,0.16641 19.959791,2.34473 1.3006,2.01938 2.892804,2.36042 11.474673,2.45778 5.480489,0.0622 12.956959,0.72163 16.614376,1.46545 l 6.649848,1.35241 -0.436339,19.93021 c -0.377412,17.23873 -0.844162,21.18985 -3.456257,29.25765 -4.597273,14.1994 -16.557404,29.9272 -28.554122,37.5492 -1.771359,1.1254 -3.220651,2.7768 -3.220651,3.6699 0,1.3135 -3.579969,1.6237 -18.740483,1.6237 l -18.7404818,0 0,-49.8255 z m 47.2021388,31.4717 c 7.967446,-6.9796 15.682583,-21.5664 18.661056,-35.28191 0.6578,-3.02909 0.435938,-3.81018 -1.082238,-3.81018 -1.050314,0 -1.909662,0.93774 -1.909662,2.08387 0,2.83586 -3.367652,7.29502 -5.509343,7.29502 -2.104043,0 -2.309899,-3.6728 -0.314312,-5.60779 0.786899,-0.76301 1.136811,-1.67229 0.777582,-2.02061 -1.069952,-1.03748 -4.626433,0.72792 -4.626433,2.29651 0,2.28169 -4.136602,5.33359 -8.990827,6.63319 -4.303727,1.1523 -4.429232,1.3402 -4.072458,6.0987 0.355925,4.7472 0.538336,4.9445 5.506638,5.9557 3.228571,0.6571 5.13852,1.6871 5.13852,2.7709 0,1.3806 -1.088285,1.5669 -5.449786,0.9327 -6.682374,-0.9717 -8.197314,1.1686 -4.261394,6.0204 l 2.610884,3.2185 -3.099701,2.1894 c -1.704835,1.2042 -3.0997,2.9368 -3.0997,3.8502 0,3.0132 4.749204,1.731 9.721174,-2.6246 z m 7.205713,-45.49885 c 0,-4.06493 8.588985,-5.05634 10.127398,-1.16899 0.373054,0.94266 1.239435,1.71392 1.925289,1.71392 0.772451,0 1.24701,-4.40575 1.24701,-11.5771 l 0,-11.5771 -3.521049,-0.68284 c -1.936576,-0.37556 -8.465518,-1.04476 -14.50876,-1.48712 -12.54887,-0.91856 -14.571864,0.5341 -5.025472,3.60866 5.633962,1.8145 6.037842,2.22312 7.335345,7.42149 2.240819,8.97772 2.129761,10.1476 -1.004174,10.57801 -2.700983,0.37094 -2.731317,0.48216 -0.719409,2.63782 2.505013,2.68399 4.143822,2.89488 4.143822,0.53325 z"
         id="path3361"
         inkscape:connector-curvature="0" />
      <path
         style="fill:#768694"
         d="m 0.0824872,1002.4891 0,-49.82553 18.7404818,0 c 17.87436,0 18.740483,0.10733 18.740483,2.32239 0,2.83593 1.635344,3.20319 17.81673,4.0013 18.611093,0.91794 17.678876,-0.27335 16.93559,21.64207 -0.673744,19.86497 -2.560684,28.11857 -9.462551,41.38997 -3.764763,7.2392 -14.266061,18.9231 -21.011337,23.3775 -2.344049,1.548 -4.265627,3.7377 -4.270171,4.8661 -0.0075,1.8654 -1.709855,2.0517 -18.748744,2.0517 l -18.7404818,0 0,-49.8255 z m 44.8643768,34.2906 c 2.834299,-2.0962 7.73387,-7.4814 10.887935,-11.9673 9.321288,-13.257 13.580997,-29.49894 12.913063,-49.23638 l -0.353294,-10.43987 -3.551285,-0.91796 c -1.953206,-0.50488 -8.754188,-1.06906 -15.113293,-1.25374 -10.653018,-0.30938 -11.562007,-0.16161 -11.562007,1.87955 0,1.60606 1.464376,2.63458 5.324541,3.73976 5.874051,1.68176 7.666791,3.50217 6.629516,6.73185 -0.388819,1.21063 0.239183,3.12684 1.449908,4.42407 2.796515,2.99632 0.775454,5.43048 -2.917636,3.51399 -4.929823,-2.55828 -5.220385,-0.7109 -0.706343,4.4909 3.264061,3.76137 7.751433,4.85536 7.751433,1.88974 0,-0.94451 1.013081,-2.24302 2.25129,-2.88558 1.757475,-0.91202 2.818291,-0.58305 4.836253,1.49977 3.048529,3.14651 3.252214,4.27548 0.771369,4.27548 -0.997477,0 -1.813595,0.584 -1.813595,1.29779 0,0.71379 -0.776249,1.00896 -1.724998,0.65594 -2.513604,-0.93528 -7.927072,1.83187 -7.938076,4.05763 -0.01349,2.72896 -3.071508,4.82036 -8.23397,5.63116 l -4.470628,0.7023 -0.273453,6.7236 c -0.253046,6.2218 -0.07259,6.7315 2.418127,6.8293 2.042762,0.08 1.744366,0.371 -1.237877,1.2059 -4.713313,1.3196 -4.960869,3.202 -0.906797,6.895 3.654815,3.3293 3.762878,4.2283 0.604531,5.0291 -1.852219,0.4697 -2.418126,1.5991 -2.418126,4.8262 0,2.3172 0.501782,4.213 1.115072,4.213 0.613289,0 3.434042,-1.715 6.26834,-3.8112 z m 1.684563,-16.119 c -0.410984,-0.6448 -0.203164,-1.1723 0.461821,-1.1723 0.664985,0 1.545322,0.5275 1.956306,1.1723 0.410983,0.6448 0.203163,1.1724 -0.461821,1.1724 -0.664985,0 -1.545322,-0.5276 -1.956306,-1.1724 z m 10.277039,-19.1209 c 0,-0.9519 0.855644,-2.04915 1.901432,-2.43828 1.325958,-0.49337 1.783366,-0.11721 1.511329,1.24288 -0.496341,2.4815 -3.412761,3.5031 -3.412761,1.1954 z m 6.045316,-11.39735 c 0,-1.5111 -3.444712,-2.87566 -4.551117,-1.80284 -0.450801,0.43712 -0.01927,1.28556 0.958942,1.88543 2.340447,1.43522 3.592175,1.40644 3.592175,-0.0826 z"
         id="path3359"
         inkscape:connector-curvature="0" />
      <path
         style="fill:#5f7284"
         d="m 0.0824872,1002.4891 0,-49.82553 18.7262278,0 c 18.699086,0 18.72581,0.004 18.438216,2.63782 -0.277339,2.54007 0.182425,2.66856 12.407154,3.46731 6.982341,0.45621 14.87148,1.26922 17.531419,1.80669 l 4.836254,0.97721 0.374699,7.57222 c 1.080031,21.82609 -3.777974,43.69828 -12.719963,57.26898 -4.709979,7.148 -14.581154,16.9086 -19.6919,19.4713 -2.524121,1.2656 -3.249664,2.3316 -2.777799,4.0813 0.620662,2.3014 0.10582,2.3682 -18.242811,2.3682 l -18.8814968,0 0,-49.8255 z m 44.9059398,34.8778 c 8.888031,-7.1937 15.540294,-16.7808 19.836443,-28.5878 3.932746,-10.80828 6.806288,-39.22893 4.346541,-42.98932 -1.203875,-1.84044 -13.441961,-3.69129 -24.621784,-3.72372 l -8.127118,-0.0236 0.421597,4.82177 c 0.570207,6.5214 -0.328369,9.24661 -3.048859,9.24661 -1.47107,0 -2.277112,0.82997 -2.277112,2.34473 0,3.68415 1.490442,2.79994 5.932278,-3.51936 4.492307,-6.39111 4.520516,-6.40533 9.248319,-4.66238 2.74144,1.01065 3.141618,1.70995 2.568527,4.48843 -0.493788,2.394 -0.02515,3.83398 1.719026,5.28206 3.014191,2.5025 1.90873,4.78255 -1.46894,3.02975 -1.324462,-0.68732 -3.331738,-1.07599 -4.460611,-0.86371 -1.624017,0.30538 -0.992973,1.48338 3.022817,5.64286 4.440119,4.59898 5.369551,5.08214 7.426296,3.86045 2.253653,-1.33864 3.820745,-0.96437 3.820745,0.91252 0,0.4861 -1.570144,1.21821 -3.489209,1.62692 -2.581575,0.5498 -3.665463,1.59761 -4.166778,4.02811 -0.693693,3.36315 -4.289177,5.49225 -10.479963,6.20565 -2.659896,0.3065 -2.980728,0.8407 -2.673279,4.4509 0.19216,2.2564 -0.549125,6.3858 -1.647298,9.1764 -1.987337,5.0502 -1.981899,5.0889 1.16195,8.2707 3.604259,3.6479 3.932842,4.8271 1.345032,4.8271 -1.112103,0 -1.813595,1.0966 -1.813595,2.835 0,1.5593 -0.33025,3.6696 -0.733888,4.6895 -1.210428,3.0586 3.707838,2.233 8.158863,-1.3696 z m 12.52457,-36.6364 c 0.410984,-0.6448 0.987172,-1.17233 1.280419,-1.17233 0.293247,0 0.533176,0.52753 0.533176,1.17233 0,0.6448 -0.576188,1.1724 -1.280418,1.1724 -0.70423,0 -0.94416,-0.5276 -0.533177,-1.1724 z m -26.56361,19.8741 c 0.430663,-0.6757 0.47512,-2.0065 0.09879,-2.9575 -0.566886,-1.4324 -1.103635,-1.475 -3.129796,-0.248 -1.345061,0.8145 -2.445565,2.1454 -2.445565,2.9575 0,1.7815 4.372936,1.9795 5.476569,0.248 z m -1.849379,-9.2536 c 0,-1.3832 -2.358101,-2.8629 -3.224169,-2.0231 -0.866067,0.8398 0.659936,3.1263 2.086461,3.1263 0.62574,0 1.137708,-0.4964 1.137708,-1.1032 z m -9.672507,-14.13756 c 0,-0.6448 -0.239929,-1.17237 -0.533176,-1.17237 -0.293248,0 -0.869435,0.52757 -1.280419,1.17237 -0.410984,0.6448 -0.171053,1.17236 0.533176,1.17236 0.70423,0 1.280419,-0.52756 1.280419,-1.17236 z M 5.4594503,991.25148 c -0.3892889,-0.61076 -1.2231566,-0.80164 -1.8530393,-0.42417 -0.6298828,0.37748 -0.8267322,1.18603 -0.4374433,1.7968 0.3892889,0.61076 1.2231566,0.80164 1.8530393,0.42416 0.6298827,-0.37747 0.8267322,-1.18603 0.4374433,-1.79679 z m 32.1040017,-3.34777 c 0,-0.60675 -0.544079,-1.42923 -1.209064,-1.82774 -0.664985,-0.39851 -1.209063,0.0979 -1.209063,1.10317 0,1.00526 0.544078,1.82774 1.209063,1.82774 0.664985,0 1.209064,-0.49643 1.209064,-1.10317 z"
         id="path3357"
         inkscape:connector-curvature="0" />
      <path
         style="fill:#4f6272"
         d="m 0.0824872,1002.4891 0,-49.82553 18.7404818,0 c 10.307266,0 18.740483,0.46297 18.740483,1.02882 0,2.45641 -3.807631,3.58416 -13.359952,3.95699 -7.746844,0.30235 -6.332355,0.45645 5.85096,0.63739 19.580256,0.29079 39.042326,2.2507 40.984719,4.12733 1.073679,1.03732 1.179937,5.9676 0.421526,19.55859 -1.178248,21.11461 -4.549131,33.25721 -12.395367,44.65041 -5.865726,8.5173 -18.341092,19.8297 -21.868426,19.8297 -4.451781,0 -20.061253,-16.7028 -25.399344,-27.1783 -4.2331296,-8.3072 -8.4453862,-22.65628 -7.2504835,-24.69889 0.2829017,-0.4836 2.2777159,-0.87927 4.4329206,-0.87927 4.5912759,0 6.8203059,-1.7791 6.8203059,-5.44364 0,-3.54627 -4.318947,-6.32171 -8.5581144,-5.49961 -3.1665617,0.61409 -3.3996386,0.37975 -3.8527743,-3.87357 -0.4139024,-3.88506 -0.5111423,-3.65419 -0.6855611,1.62772 -0.2118497,6.41542 0.5490189,7.18355 4.6535904,4.69801 2.9301954,-1.7744 6.6292644,0.0198 6.6292644,3.21545 0,3.37696 -3.55563,4.85034 -7.1738476,2.9727 -1.7047513,-0.88466 -3.4907198,-1.22917 -3.9688192,-0.76559 -1.7921297,1.73774 3.3169521,20.27599 8.2769578,30.03289 4.139437,8.1428 7.020461,11.8166 15.754147,20.0894 5.878564,5.5684 10.688298,10.4483 10.688298,10.8444 0,0.396 -8.433217,0.7201 -18.740483,0.7201 l -18.7404818,0 0,-49.8255 z m 44.4801288,35.8016 c 5.424358,-3.8101 13.080842,-13.1442 17.007491,-20.7341 4.844068,-9.3631 7.565673,-21.49234 8.284419,-36.92075 0.662018,-14.21072 0.585906,-14.87324 -1.85417,-16.13949 -4.184568,-2.17154 -25.215285,-3.31913 -40.713943,-2.22165 -21.3880885,1.51451 -20.1347804,0.9504 -19.706486,8.86993 0.3515386,6.50025 0.4611502,6.69105 3.988662,6.94294 4.752241,0.33936 9.067976,5.18394 9.067976,10.17915 0,4.16181 -4.708594,9.53082 -9.067976,10.33983 -1.8797738,0.34885 -2.3314751,1.21397 -2.0289132,3.88584 0.6459592,5.7044 2.5982372,7.7359 2.2934922,2.3866 -0.205496,-3.6071 0.207909,-4.739 1.851282,-5.06849 1.735158,-0.34793 2.115861,0.41879 2.115861,4.26139 0,3.5495 1.026066,5.989 4.231722,10.0612 2.327447,2.9565 4.231722,5.8414 4.231722,6.4107 0,0.5693 1.239253,1.3367 2.753897,1.7053 4.224398,1.0281 9.346573,6.9409 10.144853,11.7108 0.950724,5.6808 -1.166949,5.6365 -7.464528,-0.1562 -6.061817,-5.5758 -10.232925,-10.9243 -14.36416,-18.4186 -1.777223,-3.224 -2.879863,-4.5429 -2.450312,-2.9309 1.521633,5.7103 9.097763,16.2823 16.304681,22.7521 4.01722,3.6064 8.007507,6.557 8.867307,6.557 0.8598,0 3.788006,-1.5627 6.507123,-3.4726 z m -7.022135,-10.0364 c -1.277719,-1.4929 -1.202918,-1.6644 0.456488,-1.047 1.091535,0.4062 1.984609,1.2096 1.984609,1.7854 0,1.5076 -0.699894,1.2959 -2.441097,-0.7384 z m -5.54402,-8.4728 c -0.360164,-1.1284 -1.159207,-2.9678 -1.775649,-4.0874 -0.616442,-1.1197 -1.120804,-3.0416 -1.120804,-4.2709 0,-1.2294 -0.893991,-2.5679 -1.986646,-2.9745 -2.981765,-1.1094 -3.407057,0.075 -1.19979,3.3415 4.398544,6.5092 0.480175,7.4291 -5.151758,1.2094 -4.554735,-5.0301 -4.774116,-6.87 -0.729781,-6.1203 3.714796,0.6886 3.903151,-0.7284 0.412015,-3.0994 -2.245255,-1.5249 -2.38187,-2.0404 -0.976083,-3.6828 1.268282,-1.48183 2.819635,-1.73746 6.923057,-1.14079 9.550065,1.38869 15.093061,-5.72285 10.428561,-13.37954 -2.076368,-3.40832 -2.055749,-3.63811 0.818242,-9.11899 2.458924,-4.68931 3.574886,-5.68168 6.723407,-5.97876 4.280535,-0.4039 6.333955,2.41668 3.86198,5.30482 -1.199568,1.40152 -0.926576,2.11987 1.472405,3.8745 4.097571,2.99699 2.022123,4.31615 -3.079372,1.95725 -2.319097,-1.07233 -4.21654,-1.55313 -4.21654,-1.06844 0,2.38744 6.729178,10.03234 10.091322,11.46458 3.635027,1.54848 3.685995,1.65939 1.092514,2.37735 -1.789988,0.49553 -2.720392,1.65964 -2.720392,3.40372 0,3.5925 -2.471928,5.3208 -8.036808,5.619 l -4.658358,0.2496 -0.04482,5.2757 c -0.03932,4.6278 -3.155559,12.896 -4.860425,12.896 -0.336287,0 -0.906109,-0.9232 -1.266274,-2.0516 z m -3.500985,-21.97189 c -0.664984,-0.21509 -2.62632,-0.69184 -4.358524,-1.05944 -2.984515,-0.63336 -3.119032,-0.97543 -2.568454,-6.53149 0.658587,-6.646 -1.487982,-11.0538 -6.038242,-12.39902 -4.417523,-1.30597 -6.9843252,-4.16568 -6.9843252,-7.78134 0,-4.25858 2.1562692,-5.07478 16.0543192,-6.07693 9.174606,-0.66156 10.716439,-0.50529 11.37256,1.15263 0.469431,1.18619 -0.181805,2.64349 -1.706883,3.81958 -4.160844,3.2087 -4.552383,9.79035 -0.991387,16.66494 3.768184,7.27457 3.816974,8.63658 0.392698,10.96224 -2.737761,1.85939 -3.050599,1.93493 -5.171762,1.24883 z m 4.952996,-23.86031 c -0.418395,-0.65643 -0.171566,-1.54657 0.548508,-1.9781 1.858916,-1.114 3.058287,0.41191 1.506471,1.91663 -0.868325,0.84197 -1.54461,0.8622 -2.054979,0.0615 z M 10.454728,959.5381 c 3.039614,-0.13739 3.13561,-0.23266 0.688618,-0.68334 -4.2606673,-0.78473 -8.6427321,0.63776 -8.6427321,2.80558 0,1.7675 0.1734054,1.76575 2.2110634,-0.0223 1.2160848,-1.06714 3.8004578,-2.0121 5.7430507,-2.09991 z"
         id="path3355"
         inkscape:connector-curvature="0" />
      <path
         style="fill:#334a5f"
         d="m 0.0824872,1002.4891 0,-49.82553 18.7404818,0 c 11.44496,0 18.740483,0.4477 18.740483,1.15003 0,1.5893 -3.384344,2.11443 -18.503684,2.87111 -18.46920325,0.92434 -17.88751,0.39173 -17.5170187,16.03914 0.1681904,7.1034 0.6166159,13.40291 0.9965011,13.99892 0.4093196,0.64219 2.2591989,0.50958 4.5408678,-0.32551 4.3482788,-1.59147 7.1692078,-0.10016 5.8960228,3.117 -0.807637,2.04079 -5.0770743,2.4955 -6.2438053,0.66499 -0.4109832,-0.6448 -1.5312501,-1.17237 -2.489482,-1.17237 -1.2985567,0 -1.7422398,1.58788 -1.7422398,6.23522 0,13.4632 7.9998151,30.3126 20.6066811,43.4021 4.469015,4.6402 9.549883,9.1758 11.290819,10.0792 1.740935,0.9035 3.165338,2.0811 3.165338,2.6169 0,0.5359 -8.433217,0.9743 -18.740483,0.9743 l -18.7404818,0 0,-49.8255 z m 26.6301348,34.8778 c -4.356143,-4.3524 -9.681628,-11.1527 -11.834413,-15.1117 -5.2104876,-9.5823 -4.984164,-10.8086 0.389749,-2.1117 4.381284,7.0905 12.947082,16.3967 18.99565,20.6376 l 3.350005,2.3489 5.314197,-3.0198 c 6.708426,-3.8121 12.77665,-10.657 17.836003,-20.119 2.173725,-4.0653 4.152138,-7.1976 4.396474,-6.9606 0.244335,0.2369 -1.367341,3.7652 -3.581503,7.8406 -5.100637,9.3884 -19.876058,24.4092 -24.010398,24.4092 -2.03579,0 -5.363017,-2.4254 -10.855764,-7.9135 z m 0.909107,-7.0864 c -6.220183,-6.3233 -11.821418,-14.8002 -11.821418,-17.8905 0,-0.7315 1.904275,0.8801 4.231722,3.5813 2.327447,2.7012 4.231722,5.3889 4.231722,5.9727 0,0.5838 1.031795,1.0615 2.292877,1.0615 3.123224,0 9.797756,7.6149 9.797756,11.1782 0,1.5896 -0.461259,2.8901 -1.025019,2.8901 -0.563761,0 -4.032199,-3.057 -7.70764,-6.7933 z m 3.227612,-17.2401 c -1.14282,-2.9016 -2.506271,-5.2757 -3.029892,-5.2757 -1.945513,0 -8.370626,-6.1192 -7.635738,-7.2721 0.456461,-0.71619 3.053584,-0.90198 6.468268,-0.4628 7.828403,1.007 12.120536,-2.10191 12.120536,-8.77919 0,-2.54115 -0.586249,-5.53635 -1.302777,-6.656 -0.990119,-1.54717 -0.710261,-3.3722 1.166096,-7.60447 2.189792,-4.93924 2.89461,-5.56873 6.235098,-5.56873 3.574865,0 3.724796,0.18289 2.950875,3.59958 -0.619322,2.73417 -0.279065,4.02555 1.415262,5.37135 2.147168,1.70549 2.147762,1.74626 0.01586,1.08988 -1.218109,-0.37504 -2.714325,-0.68189 -3.324921,-0.68189 -0.610598,0 -1.110178,-1.09909 -1.110178,-2.44243 0,-3.07394 -2.888508,-2.35196 -3.378702,0.8445 -0.21296,1.38867 1.60913,4.48649 4.533987,7.70844 5.923141,6.5248 6.569895,11.52599 1.876181,14.50806 -1.864797,1.1848 -4.151176,1.638 -5.996945,1.1889 -3.691392,-0.8984 -5.459006,1.8012 -4.631822,7.0739 0.582058,3.7102 -1.258166,8.6343 -3.22681,8.6343 -0.586589,0 -2.00156,-2.374 -3.14438,-5.2756 z m -8.792956,0.2175 c -3.731874,-3.8518 -3.366832,-7.1093 0.515039,-4.596 1.317768,0.8532 4.110457,5.3687 4.110457,6.6461 0,1.4638 -2.139932,0.5153 -4.625496,-2.0501 z m 44.694547,-6.6655 c 0,-0.9672 0.467597,-2.8137 1.039104,-4.1033 0.654968,-1.478 1.039104,-1.6947 1.039104,-0.5862 0,0.9672 -0.467597,2.8137 -1.039104,4.1033 -0.654968,1.4779 -1.039104,1.6946 -1.039104,0.5862 z m -53.771768,-0.7816 c -1.254247,-1.2162 -0.947706,-5.0803 0.40302,-5.0803 0.664985,0 1.209064,1.3189 1.209064,2.9309 0,3.0694 -0.279284,3.4417 -1.612084,2.1494 z m -6.8513599,-7.82948 c 0,-2.6392 0.523175,-3.11261 3.4398002,-3.11261 3.9127217,0 7.4417697,-3.15439 7.4417697,-6.65171 0,-3.37769 -3.79032,-6.24431 -8.2563799,-6.24431 -3.0698711,0 -3.8342534,-0.48318 -3.8342534,-2.42373 0,-1.75894 0.5803521,-2.25655 2.1158609,-1.81422 1.1637235,0.33523 3.6247694,0.95863 5.4689914,1.38533 4.244389,0.98202 6.923908,4.64986 6.923908,9.47775 0,4.11099 -2.150456,6.84911 -6.35474,8.0913 -1.492279,0.44091 -3.6653726,1.61236 -4.829096,2.60323 -1.9503508,1.66065 -2.1158609,1.55815 -2.1158609,-1.31103 z M 26.132474,996.1932 c -3.439975,-0.71535 -3.56012,-0.96103 -3.249059,-6.64386 0.387587,-7.08086 -2.463111,-11.37964 -8.915605,-13.44452 -3.713481,-1.18836 -4.2128158,-1.82108 -4.2128158,-5.33818 0,-4.62207 0.1857796,-4.69208 15.4155578,-5.80902 8.288455,-0.60787 9.974773,-0.44183 9.974773,0.98215 0,0.94253 -0.787602,2.00674 -1.750227,2.36492 -0.962625,0.35818 -2.341968,2.78209 -3.065205,5.38647 -1.161585,4.18286 -0.957421,5.4681 1.750228,11.01787 3.677744,7.53815 3.816058,9.68753 0.726562,11.29079 -1.286252,0.66749 -2.510429,1.1512 -2.720392,1.07491 -0.209963,-0.0763 -1.98918,-0.47298 -3.953817,-0.88153 z m 44.215941,-30.24961 c -0.07714,-0.75599 -2.180547,-2.0749 -4.67424,-2.93091 -5.981269,-2.05318 -51.265646,-2.0245 -56.3891296,0.0357 -3.8973627,1.56718 -5.5976843,0.89162 -3.3186629,-1.31854 3.1063465,-3.01249 61.9153715,-2.33395 65.0969845,0.75109 0.312189,0.30271 0.310595,1.51491 -0.0035,2.69378 -0.314137,1.17887 -0.634271,1.52486 -0.711411,0.76886 z"
         id="path3353"
         inkscape:connector-curvature="0" />
      <path
         style="fill:#1e3b52"
         d="m 0.10990515,1002.5312 0.0132532,-49.86763 18.11561464,0 c 9.963589,0 18.115615,0.44739 18.115615,0.99419 0,0.54681 -6.937001,1.38169 -15.415558,1.85529 -8.478557,0.47361 -16.3803219,0.93062 -17.5594784,1.01558 -1.999527,0.14407 -2.1045835,1.81627 -1.5598524,24.82835 0.6117228,25.84212 1.0889728,28.53202 7.1045426,40.04282 5.7972022,11.093 22.7908402,29.4903 26.5857102,28.7816 1.129535,-0.2109 2.0537,0.136 2.0537,0.771 0,0.7017 -7.346456,1.2116 -18.7334,1.3004 l -18.73340005,0.146 0.0132532,-49.8676 z M 36.354388,1044.108 c 0,-0.6448 0.848228,-1.1723 1.884951,-1.1723 1.036722,0 1.548691,0.5275 1.137708,1.1723 -0.410984,0.6448 -1.259211,1.1724 -1.884951,1.1724 -0.625739,0 -1.137708,-0.5276 -1.137708,-1.1724 z m -7.002643,-13.2334 c -5.684159,-5.616 -6.132394,-6.6968 -2.777342,-6.6968 2.815525,0 8.570922,6.3584 8.570922,9.4689 0,1.2401 -0.158757,2.2548 -0.352795,2.2548 -0.194038,0 -2.642391,-2.2621 -5.440785,-5.0269 z M 19.6124,1018.8275 c -0.806701,-1.7168 -0.892709,-2.6942 -0.200574,-2.2794 1.774475,1.0634 3.907578,5.285 2.670414,5.285 -0.581641,0 -1.693069,-1.3525 -2.46984,-3.0056 z m 11.898795,-6.9799 c -0.847962,-2.4914 -2.741452,-4.7945 -4.783503,-5.8185 -1.858983,-0.9321 -3.728176,-2.5746 -4.153764,-3.65 -0.669468,-1.6917 -0.127486,-1.8551 4.019882,-1.212 9.73756,1.5098 14.172689,-3.2748 13.025567,-14.05198 l -0.711872,-6.68802 5.319109,5.75535 c 4.199585,4.544 5.330514,6.66403 5.373291,10.07271 0.05993,4.77544 -2.228873,6.31374 -7.489361,5.03354 -4.14412,-1.0085 -6.223954,1.8788 -5.439311,7.5512 0.578979,4.1856 -0.611915,7.1314 -2.883019,7.1314 -0.480416,0 -1.505076,-1.8557 -2.277019,-4.1237 z m -9.689816,-0.01 c -2.336364,-2.7296 -0.669288,-3.244 1.831136,-0.565 1.207296,1.2936 1.633298,2.3519 0.946672,2.3519 -0.686624,0 -1.936639,-0.8041 -2.777808,-1.7868 z M 7.110168,996.41258 c 0.8727927,-0.33867 1.9156098,-0.29701 2.3173715,0.0926 0.4017616,0.38956 -0.3123414,0.66665 -1.5868956,0.61574 -1.4084899,-0.0563 -1.6949852,-0.33405 -0.7304759,-0.7083 z m 19.014079,-1.43538 c -1.940239,-0.73566 -2.311109,-1.84703 -2.040463,-6.11456 0.39305,-6.19759 -2.808581,-10.95047 -9.091006,-13.49575 -3.290542,-1.33315 -4.02872,-2.27377 -4.02872,-5.13358 0,-3.1908 0.359605,-3.50136 4.054363,-3.50136 2.229899,0 7.534665,-0.30051 11.788367,-0.66781 6.609546,-0.57071 7.445229,-0.43745 5.747812,0.91658 -1.092407,0.87142 -2.569736,3.63366 -3.282954,6.13832 -1.12319,3.94438 -0.883524,5.5555 1.790576,12.03681 4.107965,9.95662 2.716732,12.7237 -4.937975,9.82135 z M 6.9667165,989.42954 c -1.2605556,-1.22229 0.3360418,-2.76739 2.859633,-2.76739 1.2907245,0 2.3467715,0.79135 2.3467715,1.75855 0,1.73891 -3.7117493,2.45813 -5.2064045,1.00884 z m -0.8389124,-9.76478 c 0,-0.62457 0.8161177,-0.83191 1.813595,-0.46076 0.9974773,0.37115 1.8135951,0.88216 1.8135951,1.13558 0,0.25341 -0.8161178,0.46075 -1.8135951,0.46075 -0.9974773,0 -1.813595,-0.51101 -1.813595,-1.13557 z M 40.180467,974.9385 c 0.32567,-0.9672 2.182403,-1.85316 4.126075,-1.9688 2.220272,-0.13209 2.635057,0.0238 1.115822,0.41925 -1.32997,0.34623 -3.186705,1.23219 -4.126075,1.9688 -1.342321,1.05259 -1.581191,0.96284 -1.115822,-0.41925 z"
         id="path3351"
         inkscape:connector-curvature="0" />
    </g>
    <path
       style="fill:#000000"
       d="m 0.0824872,1002.4891 0,-49.82553 18.8291358,0 c 17.280591,0 18.795863,0.16873 18.424563,2.05164 -0.350283,1.77633 -2.482068,2.15679 -15.88643,2.83523 -8.515021,0.43098 -16.2619957,1.07387 -17.2154992,1.42866 -1.368068,0.50904 -1.7336429,3.52228 -1.7336429,14.28949 0,12.54737 0.1701221,13.57387 2.1158609,12.767 4.8985324,-2.03135 8.7285562,-2.00382 9.5487312,0.0687 1.818108,4.5941 -3.616613,7.19842 -9.712035,4.65401 -2.1341735,-0.89087 -2.2239899,-0.52319 -1.411854,5.77962 1.8817195,14.60363 9.402886,29.70143 20.679484,41.51153 4.122938,4.318 8.924193,8.5919 10.669452,9.4976 1.74526,0.9057 3.173199,2.3489 3.173199,3.2071 0,1.2319 -3.94574,1.5605 -18.740483,1.5605 l -18.7404818,0 0,-49.8255 z m 28.1333868,37.6301 C 16.095524,1029.0028 7.5199964,1013.821 5.1767039,999.33157 l -1.066931,-6.59722 4.0214409,0.63278 c 4.9272302,0.77531 7.6690972,-1.18321 7.6690972,-5.47806 0,-4.10411 -4.534454,-6.78292 -8.232825,-4.86369 -1.3693758,0.71062 -2.7975819,1.29204 -3.1737914,1.29204 -0.3762095,0 -0.6840173,-5.26559 -0.6840173,-11.70131 l 0,-11.70131 3.3249243,-0.86609 c 4.5798464,-1.19298 52.7409784,-1.16235 60.0149904,0.0382 l 5.909405,0.9753 -0.614998,18.95491 c -0.535839,16.51513 -1.034295,20.16212 -3.872571,28.33382 -3.758068,10.8199 -7.588601,17.6658 -14.238955,25.4478 -4.206018,4.9217 -15.225858,13.8264 -17.11061,13.8264 -0.397182,0 -4.404877,-3.3777 -8.905989,-7.5059 z m 12.74902,-0 c 4.953858,-2.484 15.31268,-13.6373 18.70566,-20.1404 6.256312,-11.9909 8.382127,-21.12734 9.023526,-38.78176 l 0.603229,-16.60377 -7.101219,-0.9817 c -8.719722,-1.20545 -44.109534,-1.20325 -50.325235,0.003 l -4.5339876,0.87998 0,6.98106 0,6.98107 4.1439676,0 c 7.526858,0 11.930431,9.70546 7.307384,16.10545 -1.016591,1.40733 -3.736983,2.90234 -6.045317,3.32224 -2.308334,0.4199 -4.1969712,1.17674 -4.1969712,1.68186 0,3.60255 5.6101282,17.19445 9.4680462,22.93865 4.152226,6.1825 17.007316,19.2595 18.932609,19.2595 0.405323,0 2.213561,-0.7404 4.018308,-1.6454 z m -13.396911,-8.7891 c -8.083319,-8.3086 -14.915123,-19.7892 -16.14337,-27.1283 -0.641575,-3.8335 -0.417553,-4.1865 3.5375,-5.57324 11.006932,-3.85935 9.294018,-19.91965 -2.35045,-22.03785 -3.8692395,-0.70385 -4.0657322,-0.98417 -4.0657322,-5.8004 l 0,-5.06081 6.3475822,-0.62711 c 16.551836,-1.63526 22.669939,-1.6406 22.669939,-0.0198 0,0.87808 -1.302035,2.42375 -2.89341,3.43481 -4.701261,2.98688 -4.651878,13.91643 0.08771,19.41064 4.521494,5.2414 -0.810271,11.30955 -8.140922,9.26529 -5.936235,-1.65541 -10.077045,1.4394 -10.576339,7.90468 -0.311982,4.0398 0.252899,5.3526 3.929456,9.1326 2.361594,2.428 4.293812,5.101 4.293812,5.94 0,2.7949 2.227585,2.9079 4.297762,0.2179 1.566749,-2.0359 1.865314,-2.1461 1.27648,-0.4713 -0.53468,1.5209 0.523987,3.5736 3.478424,6.7445 3.150883,3.3818 4.247031,5.6164 4.247031,8.6582 0,2.2549 -0.478175,4.0999 -1.062612,4.0999 -0.584437,0 -4.604222,-3.6404 -8.932857,-8.0897 z m 7.879608,-4.7486 c -2.161201,-2.5242 -3.929456,-5.9128 -3.929456,-7.5301 0,-1.6173 -0.544079,-3.2666 -1.209064,-3.6651 -0.664984,-0.3985 -1.209063,-1.7731 -1.209063,-3.0546 0,-1.3511 -1.501452,-3.1657 -3.573382,-4.3187 -1.965359,-1.0937 -4.10485,-3.0475 -4.754423,-4.3418 -1.13712,-2.2658 -1.184085,-2.2543 -1.262872,0.3097 -0.05434,1.7682 0.964228,3.1251 3.031503,4.0384 3.810795,1.6836 6.667602,6.7117 5.74888,10.1183 -0.749543,2.7792 -2.816896,3.4616 -2.816896,0.9298 0,-0.877 -1.904275,-3.5524 -4.231722,-5.9453 -4.686078,-4.8179 -5.57422,-9.864 -2.207092,-12.5399 1.166125,-0.92675 4.818335,-1.60902 8.61307,-1.60902 5.674852,0 6.915648,-0.42096 8.948131,-3.03584 1.842333,-2.37024 2.172735,-4.00216 1.506974,-7.44325 -0.513603,-2.65464 -1.211005,-3.84528 -1.753652,-2.99391 -0.644805,1.01165 -1.136054,1.04462 -1.727956,0.11597 -0.454861,-0.71364 -0.519481,-1.78003 -0.143599,-2.36976 0.375881,-0.58973 -6.9e-5,-1.31782 -0.835443,-1.61798 -1.118202,-0.40179 -0.96072,-1.11299 0.596998,-2.69609 2.043062,-2.07634 2.120419,-2.05093 2.248334,0.73871 0.07846,1.71116 0.557321,0.79162 1.174519,-2.2554 1.250584,-6.17397 1.06249,-5.9649 6.420443,-7.13663 3.033943,-0.6635 4.671429,-0.49506 5.587036,0.57469 0.938468,1.09646 0.865042,1.68063 -0.266576,2.1209 -1.195141,0.46499 -1.206987,0.62937 -0.05047,0.70019 2.224287,0.13622 1.84379,2.43729 -0.403018,2.43729 -1.052894,0 -1.664982,0.65945 -1.360196,1.46545 0.304784,0.806 1.227379,1.31381 2.050211,1.12846 0.822831,-0.18536 2.233733,0.60599 3.135338,1.75854 1.655162,2.11585 2.393534,4.90168 0.920634,3.47349 -0.437554,-0.42428 -1.525711,-0.18383 -2.418127,0.53433 -1.197023,0.96329 -1.622574,0.95301 -1.622574,-0.0392 0,-0.73972 -1.421117,-1.86884 -3.158038,-2.50918 -2.335895,-0.86115 -2.994883,-1.76921 -2.531319,-3.48808 0.344696,-1.2781 0.133578,-2.32383 -0.469152,-2.32383 -2.915645,0 -0.652877,6.10943 4.179736,11.2852 5.05609,5.41512 5.41627,5.58808 8.656118,4.15671 3.907233,-1.72622 5.363368,-0.50606 5.394775,4.52052 0.02537,4.0605 -3.543965,8.9933 -4.940868,6.8283 -0.679102,-1.0525 -0.173355,-2.2121 1.505682,-3.4522 1.855726,-1.37059 2.300598,-2.56283 1.672416,-4.48198 -0.791367,-2.4177 -1.016588,-2.47361 -2.989617,-0.74224 -1.173576,1.02983 -2.959163,1.56531 -3.967972,1.18994 -1.412743,-0.52567 -1.703039,-0.0172 -1.26339,2.21286 0.626689,3.17882 -2.403654,5.73212 -8.403744,7.08082 -2.621195,0.5892 -3.149615,0.3786 -2.591037,-1.0329 0.998183,-2.5222 -0.445097,-2.2004 -1.892511,0.422 -0.766972,1.3896 -0.806646,3.5637 -0.108126,5.9254 0.90233,3.0507 0.674727,4.1461 -1.249173,6.0116 -2.969012,2.8789 -2.958053,3.3875 0.05651,2.6231 3.476528,-0.8815 13.308773,0.7521 13.308773,2.2113 0,0.7737 -1.019204,0.8931 -2.720393,0.3186 -3.558845,-1.2019 -12.598609,-1.3047 -13.782461,-0.1568 -0.509702,0.4943 1.498711,2.9864 4.463137,5.5382 4.254079,3.6618 4.880304,4.6354 2.971741,4.62 -1.329969,-0.011 -4.186381,-2.0848 -6.347582,-4.609 z m 27.550845,-35.70099 c -1.529848,-3.90167 -3.346662,-4.69995 -5.638649,-2.47753 -1.071542,1.03902 -2.290689,1.55708 -2.709217,1.15126 -1.092615,-1.05945 3.688135,-4.19388 5.796239,-3.80022 2.179222,0.40695 6.929215,7.94352 5.006471,7.94352 -0.742657,0 -1.847336,-1.26766 -2.454844,-2.81703 z M 33.218803,974.31254 c 0.458779,-4.17244 5.317808,-7.30983 9.785434,-6.31829 l 3.62719,0.80501 -3.687643,0.13871 c -4.146791,0.15598 -6.589396,1.98614 -6.589396,4.93721 0,1.09166 -0.77552,2.27339 -1.723376,2.62608 -1.241184,0.46183 -1.636313,-0.15057 -1.412209,-2.18872 z"
       id="path3347"
       inkscape:connector-curvature="0" />
  </g>
</svg>
