<?xml version="1.0" encoding="UTF-8" standalone="no"?>
<!-- Created with Inkscape (http://www.inkscape.org/) -->

<svg
   xmlns:dc="http://purl.org/dc/elements/1.1/"
   xmlns:cc="http://creativecommons.org/ns#"
   xmlns:rdf="http://www.w3.org/1999/02/22-rdf-syntax-ns#"
   xmlns:svg="http://www.w3.org/2000/svg"
   xmlns="http://www.w3.org/2000/svg"
   xmlns:xlink="http://www.w3.org/1999/xlink"
   xmlns:sodipodi="http://sodipodi.sourceforge.net/DTD/sodipodi-0.dtd"
   xmlns:inkscape="http://www.inkscape.org/namespaces/inkscape"
   width="100mm"
   height="150mm"
   viewBox="0 0 354.33071 531.49606"
   id="svg2"
   version="1.1"
   inkscape:version="0.91 r13725"
   sodipodi:docname="Lancervector2.svg">
  <defs
     id="defs4" />
  <sodipodi:namedview
     id="base"
     pagecolor="#ffffff"
     bordercolor="#666666"
     borderopacity="1.0"
     inkscape:pageopacity="0.0"
     inkscape:pageshadow="2"
     inkscape:zoom="1.4826074"
     inkscape:cx="-8.9931652"
     inkscape:cy="276.58617"
     inkscape:document-units="px"
     inkscape:current-layer="layer1"
     showgrid="false"
     inkscape:window-width="1680"
     inkscape:window-height="987"
     inkscape:window-x="-8"
     inkscape:window-y="-8"
     inkscape:window-maximized="1" />
  <metadata
     id="metadata7">
    <rdf:RDF>
      <cc:Work
         rdf:about="">
        <dc:format>image/svg+xml</dc:format>
        <dc:type
           rdf:resource="http://purl.org/dc/dcmitype/StillImage" />
        <dc:title></dc:title>
      </cc:Work>
    </rdf:RDF>
  </metadata>
  <g
     inkscape:label="Layer 1"
     inkscape:groupmode="layer"
     id="layer1"
     transform="translate(0,-520.86614)">
    <image
       sodipodi:absref="C:\Users\frede\OneDrive\Documents\Lancer logo cropped.jpeg"
       xlink:href="Lancer logo cropped.jpeg"
       width="352.69086"
       height="531.17712"
       preserveAspectRatio="none"
       id="image3344"
       x="-0.3042292"
       y="521.7002" />
    <path
       style="fill:#000080"
       d="m -0.3042292,787.28876 0,-265.58856 88.5898232,0 c 81.304026,0 88.433276,0.8994 86.686336,10.936 -1.64806,9.46851 -11.67796,11.49649 -74.74459,15.11284 -40.062602,2.29727 -76.511601,5.72415 -80.997771,7.6153 -6.436669,2.71339 -8.156674,18.77507 -8.156674,76.16832 0,66.88213 0.800413,72.35381 9.954984,68.05288 23.047267,-10.82788 41.067273,-10.68111 44.926143,0.36589 8.554073,24.48828 -17.015924,38.37029 -45.694476,24.80762 -10.041144,-4.74866 -10.4637238,-2.7888 -6.642679,30.80757 8.853364,77.84284 44.239948,158.31987 97.295583,221.272 19.39815,23.01649 41.98774,45.79808 50.19906,50.62568 8.21133,4.8277 14.92969,12.5205 14.92969,17.0953 0,6.5665 -18.56444,8.3177 -88.172714,8.3177 l -88.1727152,0 0,-265.58854 z M 132.06148,987.87119 C 75.036039,928.61663 34.688754,847.69218 23.66372,770.45808 l -5.019839,-35.16568 18.92061,3.37296 c 23.18229,4.1327 36.082589,-6.30696 36.082589,-29.20008 0,-21.87644 -21.334302,-36.15551 -38.734891,-25.9253 -6.442821,3.78789 -13.162435,6.88707 -14.932476,6.88707 -1.77004,0 -3.218255,-28.06757 -3.218255,-62.37237 l 0,-62.37236 15.643546,-4.61658 c 21.547869,-6.359 248.142776,-6.19575 282.366516,0.20344 l 27.80335,5.1987 -2.89352,101.03673 c -2.52109,88.03183 -4.86629,107.47156 -18.22019,151.02986 -17.68146,57.67407 -35.70386,94.16533 -66.99333,135.64623 -19.78903,26.23461 -71.63664,73.7 -80.50427,73.7 -1.86872,0 -20.72465,-18.0043 -41.90208,-40.00951 z m 59.98328,-0.006 c 23.30757,-13.2408 72.04513,-72.69211 88.00888,-107.35568 29.43553,-63.91612 39.43734,-112.61678 42.45509,-206.7214 l 2.83814,-88.50433 -33.41075,-5.23281 c -41.02571,-6.42546 -207.532412,-6.41376 -236.776867,0.0166 l -21.332109,4.6906 0,37.21169 0,37.21169 19.497092,0 c 35.41336,0 56.131874,51.73373 34.380749,85.84805 -4.782989,7.50161 -17.582254,15.47056 -28.442811,17.7088 -10.860558,2.23823 -19.746467,6.27245 -19.746467,8.96493 0,19.20285 26.395275,91.65291 44.546522,122.27181 19.535941,32.95472 80.018291,102.66011 89.076661,102.66011 1.90702,0 10.41465,-3.94666 18.90587,-8.77034 z M 129.01319,941.01593 C 90.981716,896.72768 58.838535,835.53189 53.059714,796.41191 50.041148,775.97761 51.095155,774.0963 69.703416,766.70437 121.4903,746.13259 113.43115,660.52522 58.644703,649.23437 40.440192,645.48263 39.515707,643.98838 39.515707,618.3161 l 0,-26.976 29.864951,-3.34276 c 77.875282,-8.71652 106.660542,-8.74502 106.660542,-0.1056 0,4.68053 -6.12598,12.9195 -13.6133,18.30883 -22.11912,15.92121 -21.88677,74.1798 0.41265,103.46597 21.27333,27.93861 -3.81227,60.28412 -38.30249,49.38746 -27.929588,-8.82394 -47.411821,7.67252 -49.76097,42.13481 -1.467854,21.53358 1.189877,28.53165 18.487828,48.68025 11.111142,12.94226 20.202102,27.19023 20.202102,31.66216 0,14.89837 10.48064,15.5004 20.22068,1.16151 7.37145,-10.85195 8.77618,-11.43945 6.00576,-2.51182 -2.51564,8.10659 2.46532,19.04824 16.36574,35.95058 14.8247,18.02621 19.982,29.93773 19.982,46.15127 0,12.01969 -2.24978,21.85399 -4.99952,21.85399 -2.74973,0 -21.66255,-19.40437 -42.02849,-43.12082 z m 37.07303,-25.3121 c -10.16831,-13.455 -18.48783,-31.51709 -18.48783,-40.13798 0,-8.62088 -2.55985,-17.41232 -5.68856,-19.53652 -3.12871,-2.1242 -5.68857,-9.45124 -5.68857,-16.28231 0,-7.20148 -7.06423,-16.87398 -16.81252,-23.02006 -9.24688,-5.82996 -19.31304,-16.2446 -22.369239,-23.14364 -5.350076,-12.07722 -5.571043,-12.01582 -5.941732,1.65084 -0.255644,9.42528 4.536628,16.65797 14.263021,21.52633 17.92954,8.97428 31.37062,35.77596 27.0481,53.93421 -3.52655,14.81447 -13.25331,18.45187 -13.25331,4.95618 0,-4.67477 -8.95949,-18.93557 -19.90997,-31.69066 -22.047684,-25.68109 -26.226331,-52.57868 -10.38422,-66.84228 5.486539,-4.93986 22.66994,-8.57661 40.52392,-8.57661 26.69979,0 32.53766,-2.24391 42.10035,-16.18217 8.66806,-12.63426 10.22258,-21.333 7.09022,-39.6753 -2.41647,-14.15024 -5.6977,-20.49677 -8.25082,-15.95865 -3.03376,5.39246 -5.34506,5.5682 -8.12992,0.61817 -2.14008,-3.80398 -2.44412,-9.48825 -0.67562,-12.63173 1.76849,-3.14347 -3.3e-4,-7.02447 -3.9307,-8.62445 -5.26107,-2.14168 -4.52013,-5.93263 2.80883,-14.37113 9.61247,-11.06771 9.97643,-10.93223 10.57826,3.9376 0.36913,9.12112 2.62216,4.2196 5.52604,-12.02217 5.88391,-32.90955 4.99894,-31.7951 30.20775,-38.04089 14.2745,-3.53668 21.97876,-2.63887 26.28663,3.06331 4.41543,5.84455 4.06997,8.95842 -1.25422,11.30523 -5.62306,2.47853 -5.67879,3.35474 -0.23744,3.73227 10.46512,0.72608 8.67491,12.99163 -1.89617,12.99163 -4.9538,0 -7.83363,3.51514 -6.39964,7.81143 1.43399,4.29629 5.77474,7.00307 9.64611,6.01507 3.87137,-0.98799 10.50957,3.23018 14.75156,9.37372 7.78742,11.27827 11.26142,26.12775 4.33152,18.51495 -2.05866,-2.26153 -7.17837,-0.97983 -11.37712,2.84822 -5.63192,5.13469 -7.63411,5.0799 -7.63411,-0.20889 0,-3.94294 -6.68626,-9.96161 -14.85836,-13.37482 -10.99022,-4.59024 -14.09072,-9.43057 -11.90968,-18.59276 1.62177,-6.8128 0.62847,-12.38692 -2.20733,-12.38692 -13.71792,0 -3.07175,32.56554 19.66538,60.15434 23.78856,28.8646 25.48318,29.78654 40.72646,22.15682 18.38326,-9.2014 25.23428,-2.69748 25.38205,24.09608 0.11934,21.64381 -16.67412,47.93752 -23.24645,36.3972 -3.19513,-5.61031 -0.81563,-11.79116 7.08413,-18.40134 8.73106,-7.30578 10.82416,-13.66084 7.8686,-23.89064 -3.72333,-12.88723 -4.78297,-13.18528 -14.06594,-3.95644 -5.5216,5.48941 -13.92267,8.34369 -18.66905,6.34285 -6.64686,-2.802 -8.01268,-0.0917 -5.94416,11.79539 2.94853,16.94421 -11.30904,30.55433 -39.53906,37.74356 -12.33254,3.14069 -14.81872,2.01785 -12.19065,-5.50569 4.69638,-13.44464 -2.09416,-11.72941 -8.90414,2.24911 -3.60855,7.40709 -3.79521,18.99617 -0.50873,31.58471 4.24541,16.26159 3.17455,22.10007 -5.87727,32.0439 -13.96901,15.34559 -13.91744,18.05677 0.26588,13.98223 16.35683,-4.69892 62.61689,4.00914 62.61689,11.78709 0,4.12421 -4.79529,4.76041 -12.79927,1.69809 -16.74413,-6.4063 -59.27561,-6.95423 -64.84556,-0.83539 -2.39811,2.63443 7.05134,15.91852 20.99877,29.5202 20.01515,19.51899 22.9615,24.70842 13.98184,24.62634 -6.25742,-0.0575 -19.69665,-11.11263 -29.86495,-24.56763 z M 295.7111,725.40437 c -7.19783,-20.79737 -15.74582,-25.05249 -26.52947,-13.20618 -5.04153,5.53836 -10.77753,8.29984 -12.74668,6.13664 -5.14068,-5.64726 17.35243,-22.35491 27.27092,-20.25655 10.25309,2.16915 32.60149,42.34191 23.55511,42.34191 -3.49416,0 -8.6916,-6.75712 -11.54988,-15.01582 z m -140.11118,-88.3071 c 2.15853,-22.24061 25.01993,-38.96408 46.03981,-33.67882 l 17.06569,4.29101 -17.35012,0.73937 c -19.51037,0.83142 -31.00266,10.58687 -31.00266,26.31718 0,5.81892 -3.64877,12.11801 -8.10837,13.99796 -5.83969,2.46173 -7.69875,-0.80256 -6.64435,-11.6667 z"
       id="path3347"
       inkscape:connector-curvature="0" />
  </g>
</svg>
